<?xml version="1.0" encoding="UTF-8" standalone="no"?>
<!-- Created with Inkscape (http://www.inkscape.org/) -->

<svg
   width="100mm"
   height="149mm"
   viewBox="0 0 100 149"
   version="1.1"
   id="svg1"
   sodipodi:docname="mtfuji.svg"
   inkscape:version="1.4 (e7c3feb1, 2024-10-09)"
   xmlns:inkscape="http://www.inkscape.org/namespaces/inkscape"
   xmlns:sodipodi="http://sodipodi.sourceforge.net/DTD/sodipodi-0.dtd"
   xmlns:xlink="http://www.w3.org/1999/xlink"
   xmlns="http://www.w3.org/2000/svg"
   xmlns:svg="http://www.w3.org/2000/svg">
   <sodipodi:namedview
      id="namedview1"
      pagecolor="#505050"
      bordercolor="#ffffff"
      borderopacity="1"
      inkscape:showpageshadow="0"
      inkscape:pageopacity="0"
      inkscape:pagecheckerboard="1"
      inkscape:deskcolor="#505050"
      inkscape:document-units="mm"
      inkscape:zoom="0.95798684"
      inkscape:cx="253.135"
      inkscape:cy="269.31476"
      inkscape:window-width="1440"
      inkscape:window-height="847"
      inkscape:window-x="0"
      inkscape:window-y="25"
      inkscape:window-maximized="0"
      inkscape:current-layer="layer1" />
   <defs
      id="defs1">
      <linearGradient
         id="linearGradient24"
         inkscape:collect="always">
         <stop
            style="stop-color:#ffffff;stop-opacity:1;"
            offset="0"
            id="stop24" />
         <stop
            style="stop-color:#ffffff;stop-opacity:0;"
            offset="1"
            id="stop25" />
      </linearGradient>
      <linearGradient
         id="linearGradient14"
         inkscape:collect="always">
         <stop
            style="stop-color:#ed5313;stop-opacity:1;"
            offset="0.42507645"
            id="stop14" />
         <stop
            style="stop-color:#000000;stop-opacity:0;"
            offset="1"
            id="stop15" />
      </linearGradient>
      <linearGradient
         id="linearGradient7"
         inkscape:collect="always">
         <stop
            style="stop-color:#000000;stop-opacity:1;"
            offset="0"
            id="stop7" />
         <stop
            style="stop-color:#ffffff;stop-opacity:1;"
            offset="1"
            id="stop8" />
      </linearGradient>
      <linearGradient
         id="linearGradient4"
         inkscape:collect="always">
         <stop
            style="stop-color:#2ebcd0;stop-opacity:0;"
            offset="0.02140673"
            id="stop5" />
         <stop
            style="stop-color:#206195;stop-opacity:1;"
            offset="1"
            id="stop4" />
      </linearGradient>
      <inkscape:path-effect
         effect="spiro"
         id="path-effect2"
         is_visible="true"
         lpeversion="1" />
      <linearGradient
         inkscape:collect="always"
         xlink:href="#linearGradient4"
         id="linearGradient5"
         x1="50"
         y1="124.5"
         x2="50"
         y2="24.5"
         gradientUnits="userSpaceOnUse" />
      <linearGradient
         inkscape:collect="always"
         xlink:href="#linearGradient7"
         id="linearGradient8"
         x1="51.369942"
         y1="49.114677"
         x2="51.369942"
         y2="124.79137"
         gradientUnits="userSpaceOnUse"
         gradientTransform="matrix(1.025641,0,0,1,-2.5701034,0)" />
      <linearGradient
         inkscape:collect="always"
         xlink:href="#linearGradient7"
         id="linearGradient9"
         gradientUnits="userSpaceOnUse"
         x1="51.369942"
         y1="49.114677"
         x2="51.369942"
         y2="124.79137"
         gradientTransform="matrix(1.025641,0,0,1.0931254,-24.254264,-3.1454426e-6)" />
      <linearGradient
         inkscape:collect="always"
         xlink:href="#linearGradient7"
         id="linearGradient10"
         gradientUnits="userSpaceOnUse"
         x1="51.369942"
         y1="49.114677"
         x2="51.369942"
         y2="124.79137"
         gradientTransform="matrix(1.025641,0,0,1.0931254,19.11409,2.9192609e-6)" />
      <radialGradient
         inkscape:collect="always"
         xlink:href="#linearGradient14"
         id="radialGradient15"
         cx="22.621424"
         cy="43.783409"
         fx="22.621424"
         fy="43.783409"
         r="15"
         gradientUnits="userSpaceOnUse"
         gradientTransform="matrix(1.8736523,0,0,1.8736523,-20.372447,-32.920193)" />
      <radialGradient
         inkscape:collect="always"
         xlink:href="#linearGradient24"
         id="radialGradient25"
         cx="47.228488"
         cy="87.557403"
         fx="47.228488"
         fy="87.557403"
         r="50.017618"
         gradientTransform="matrix(1,0,0,0.2201627,0,68.280529)"
         gradientUnits="userSpaceOnUse" />
   </defs>
   <g
      inkscape:label="Layer 1"
      inkscape:groupmode="layer"
      id="layer1">
      <rect
         style="fill:#ffffff;fill-opacity:1;stroke:none;stroke-width:1.714;stroke-linecap:round;stroke-linejoin:round;stroke-dasharray:none;paint-order:markers stroke fill"
         id="rect2"
         width="100"
         height="149"
         x="0"
         y="0"
         ry="0"
         inkscape:label="background"
         sodipodi:insensitive="true" />
      <rect
         style="fill:url(#linearGradient5);fill-opacity:1;stroke:none;stroke-width:3.1155;stroke-linecap:round;stroke-linejoin:round;stroke-dasharray:none;paint-order:markers stroke fill"
         id="rect3"
         width="100"
         height="149"
         x="0"
         y="0" />
      <circle
         style="fill:url(#radialGradient15);stroke:none;stroke-width:3.44108;stroke-linecap:round;stroke-linejoin:round;stroke-dasharray:none;paint-order:markers stroke fill"
         id="path14"
         cx="22.012236"
         cy="49.114685"
         r="28.104784" />
      <g
         id="g13">
         <rect
            style="fill:url(#linearGradient8);fill-opacity:1;stroke:none;stroke-width:1.73584;stroke-linecap:round;stroke-linejoin:round;stroke-dasharray:none;paint-order:markers stroke fill"
            id="rect5"
            width="33.411346"
            height="75.676697"
            x="33.411343"
            y="49.114677" />
         <rect
            style="fill:url(#linearGradient9);fill-opacity:1;stroke:none;stroke-width:1.81486;stroke-linecap:round;stroke-linejoin:round;stroke-dasharray:none;paint-order:markers stroke fill"
            id="rect5-0"
            width="33.411346"
            height="82.724113"
            x="11.72718"
            y="53.688499"
            transform="matrix(1,0,0.40388866,0.91480815,0,0)" />
         <rect
            style="fill:url(#linearGradient10);fill-opacity:1;stroke:none;stroke-width:1.81486;stroke-linecap:round;stroke-linejoin:round;stroke-dasharray:none;paint-order:markers stroke fill"
            id="rect5-6"
            width="33.411346"
            height="82.724121"
            x="55.095535"
            y="53.688511"
            transform="matrix(1,0,-0.40388882,0.91480808,0,0)" />
      </g>
      <path
         style="fill:url(#radialGradient25);fill-opacity:1;stroke:none;stroke-width:1.714;stroke-linecap:round;stroke-linejoin:round;stroke-dasharray:none;paint-order:markers stroke fill"
         id="path23"
         d="M 0.48977444,82.744743 C 3.2650763,81.735855 6.321526,81.41033 9.2272563,80.930365 c 3.0600127,-0.4929 6.0669617,-1.252532 9.1051357,-1.851755 -0.821224,-0.482052 1.546468,0.11856 1.204479,-0.0941 -1.06139,-0.660008 -2.196996,-1.192572 -3.303449,-1.773883 -0.04702,-0.02471 -0.106718,-0.06734 -0.153605,-0.04239 -0.374316,0.199229 -0.705755,0.470617 -1.067286,0.6922 -0.484682,0.297067 -0.980492,0.57558 -1.470738,0.86337 -2.106188,1.22518 -4.2899804,2.309974 -6.4185173,3.493812 -0.094782,0.06444 -0.2329699,0.09086 -0.2843456,0.193313 -0.064346,0.128315 -0.1516476,0.356666 -0.028082,0.42972 1.2757915,0.754293 2.6058019,1.445382 4.0085909,1.923693 0.391974,0.133652 0.823832,-0.08596 1.234954,-0.135797 2.042899,-0.247656 1.697337,-0.216117 3.860657,-0.57539 2.845705,-0.412895 5.629155,-1.154369 8.451295,-1.682588 0.123998,-0.0049 0.477691,0.05036 0.371993,-0.01466 -1.106664,-0.680747 -2.192743,-1.44767 -3.423951,-1.862701 -0.245722,-0.08283 -0.381591,0.352189 -0.5868,0.510712 -1.068018,0.825031 -2.226604,1.525048 -3.372686,2.233316 -2.134676,1.312 -2.858771,1.08885 2.001669,3.19695 0.328322,0.142401 0.677217,-0.231688 1.016643,-0.345107 1.281249,-0.42812 2.564394,-0.850543 3.846055,-1.277427 1.960429,-0.644123 3.943783,-1.213942 5.933217,-1.76041 0.0665,-0.01826 1.992635,-0.55848 2.266498,-0.571762 0.136369,-0.0066 0.253661,0.101073 0.380492,0.151611 -1.139984,-0.603252 -2.20835,-1.367604 -3.419954,-1.809752 -0.18324,-0.06687 -0.270021,0.282522 -0.418539,0.408974 -0.794938,0.676836 -1.69382,1.242719 -2.579846,1.79125 1.197115,0.68117 2.314733,1.526461 3.591343,2.043515 0.227134,0.09199 0.44174,-0.212339 0.661341,-0.321088 1.301851,-0.644691 2.61842,-1.25214 3.939149,-1.857211 -0.611989,-0.06843 1.241234,-0.308652 0.957773,-0.541319 -1.105527,-0.907422 -2.279174,-1.754669 -3.551936,-2.407113 -0.339241,-0.173902 -0.762487,0.0065 -1.143648,5.6e-5 -1.570316,-0.02635 -2.296954,-0.07255 -3.916064,-0.146664 -3.204667,-0.21486 -6.404446,-0.42029 -9.616965,-0.394618 -1.497355,-0.03281 -2.984242,0.109559 -4.470372,0.26784 -0.177867,-0.09337 -0.369795,0.109107 -0.548613,0.0651 -0.02737,-0.0067 -0.03637,-0.09798 -0.01208,-0.08369 1.227851,0.722191 2.32703,1.694193 3.649646,2.223217 0.384617,0.153842 0.805706,-0.193381 1.210994,-0.279046 0.706385,-0.149309 1.415807,-0.283871 2.12371,-0.425804 4.519272,-0.839798 9.067612,-1.509313 13.619432,-2.144194 -1.04107,-0.500534 1.513752,0.08879 1.192479,-0.150596 -1.104939,-0.823306 -2.179066,-1.761712 -3.467221,-2.250979 -0.550569,-0.209119 -1.161632,0.197172 -1.745946,0.270909 -1.854557,0.234035 -4.394022,0.454515 -6.221362,0.625311 -4.814698,0.452692 -9.635583,0.835359 -14.4556616,1.225619 -0.5624329,0.0098 -1.1195348,0.111654 -1.6813262,0.132667 -1.3840047,0.05177 -3.9830578,-1.498565 3.0214972,2.194595 0.1814578,0.09567 0.4024579,-0.08002 0.6047946,-0.113784 0.410661,-0.06852 0.822671,-0.128702 1.234006,-0.193054 4.455771,-0.479467 8.935795,-0.71411 13.405703,-1.036068 2.906577,-0.205021 5.815736,-0.381122 8.729569,-0.428432 0.177186,-7.94e-4 0.959014,-0.02937 1.204277,0.04644 0.06902,0.02133 0.220004,0.184812 0.157054,0.149363 -1.192837,-0.671695 -2.282044,-1.550459 -3.552163,-2.061176 -0.248193,-0.0998 -0.480436,0.236019 -0.726623,0.340664 -0.331041,0.140711 -0.66947,0.263361 -1.004205,0.395039 -2.428221,0.913831 -4.909958,1.676141 -7.342844,2.577158 -0.126784,0.06474 -0.490095,0.103558 -0.38035,0.194231 1.082403,0.894302 2.191537,1.817679 3.482794,2.369063 0.487299,0.208082 1.049569,-0.14705 1.575803,-0.208976 0.800708,-0.09423 1.603187,-0.172759 2.404745,-0.259458 3.802946,-0.411329 1.713182,-0.192984 5.5079,-0.577911 3.345198,-0.333549 6.696331,-0.609798 10.056466,-0.728041 -0.720847,-0.940276 0.930087,0.291825 0.717978,0.16768 -1.180594,-0.690991 -2.253737,-1.59589 -3.524562,-2.102128 -0.279823,-0.111469 -0.545476,0.256342 -0.824563,0.369636 -1.182053,0.479857 -1.869922,0.692809 -3.115488,1.118579 -1.574106,0.530577 -3.166959,1.002459 -4.761206,1.467946 -0.341712,0.09977 -0.684673,0.19526 -1.025919,0.296616 -0.230849,0.06857 -0.477351,0.100682 -0.690298,0.213141 -0.0983,0.05191 -0.13838,0.174019 -0.207568,0.26103 1.323112,0.755343 2.565233,1.674706 3.969337,2.266031 0.4591,0.193345 0.995937,0.02845 1.494047,0.03482 0.671517,0.0086 1.343138,0.0149 2.014696,0.01008 2.151295,-0.01543 4.30058,-0.114885 6.45092,-0.171926 0.432091,0.03189 0.869238,0.02244 1.296273,0.09566 0.222716,0.03818 0.423765,0.157044 0.635648,0.235564 -1.084016,-0.590476 -2.112991,-1.295718 -3.252052,-1.771425 -0.137776,-0.05754 -0.238268,0.18048 -0.363791,0.261329 -0.960033,0.618339 -0.885267,0.543316 -1.957986,1.08408 -0.625715,0.345567 -1.296037,0.599614 -1.93194,0.923949 -1.761101,0.898231 -0.5672,0.98726 3.013411,2.651707 0.328758,0.152823 0.711116,-0.141656 1.066864,-0.211511 0.525801,-0.103248 1.051859,-0.205203 1.57779,-0.307803 1.541751,-0.316788 3.083367,-0.634526 4.620545,-0.972952 0.335635,-0.0739 0.670857,-0.149667 1.005944,-0.226007 0.245245,-0.05587 0.48479,-0.145302 0.735041,-0.17063 0.103648,-0.01048 0.203756,0.04353 0.305634,0.0653 -1.234059,-0.611243 -2.37344,-1.47183 -3.702183,-1.833727 -0.353269,-0.09622 -0.622374,0.386051 -0.939183,0.569598 -1.245518,0.721611 -2.543818,1.343919 -3.788489,2.066321 -1.180407,1.346007 -0.687232,0.586291 3.408799,2.566316 0.267626,0.129371 0.593214,-0.03966 0.889402,-0.0648 0.677939,-0.05755 1.350952,-0.17404 2.030455,-0.208505 0.240416,-0.0122 0.48121,0.01516 0.721817,0.02275 -1.053981,-0.561554 -2.079564,-1.180005 -3.16194,-1.68466 -0.08977,-0.04185 -0.198972,0.03137 -0.28712,0.07654 -0.312434,0.1601 -0.597395,0.369822 -0.906984,0.535353 -1.025141,0.548124 -2.106438,0.974117 -3.18266,1.407888 -0.377761,0.273492 -0.904324,0.256254 -1.295572,0.504711 -0.08796,0.05586 -0.273193,0.18905 -0.18832,0.249497 1.18091,0.841062 2.424544,1.601044 3.714843,2.262147 0.22062,0.113038 0.495459,0.02191 0.743349,0.02207 0.31396,2.19e-4 0.627764,-0.01392 0.941645,-0.02088 2.113306,-0.138718 3.384767,0.734309 -1.488141,-1.649912 -0.06683,-0.0327 -0.152186,0.0075 -0.219869,0.03834 -0.334685,0.152704 -0.652891,0.339214 -0.979337,0.508823 -0.418192,0.179077 -0.836387,0.358158 -1.25458,0.537236 -1.072806,0.426701 -2.169284,0.789022 -3.266919,1.145262 -0.419687,0.13621 -0.865322,0.24601 -1.264417,0.439296 1.105339,0.770945 2.16807,1.606894 3.316018,2.312831 0.07686,0.04726 0.15776,-0.08791 0.239355,-0.126436 0.230857,-0.108998 0.601268,-0.267544 0.453726,-0.372975 -1.117997,-0.798899 -2.311919,-1.485821 -3.467878,-2.228729 -0.90351,0.07813 -1.812438,0.03138 -2.717419,0.01082 -0.694994,-0.0158 -1.340493,-0.0089 -2.006486,-0.211482 1.120402,0.621578 2.157661,1.425247 3.361203,1.864731 0.237196,0.08661 0.420838,-0.280138 0.641363,-0.403159 1.795439,-1.001588 3.702492,-1.780961 5.592866,-2.580574 0.303181,-0.134691 0.619847,-0.242406 0.909545,-0.404069 1.349216,-0.752909 -1.555144,-1.682467 -3.542147,-2.494711 -0.360526,-0.147378 -0.770974,0.11144 -1.15588,0.171005 -1.759704,0.272323 -1.238818,0.189124 -3.038062,0.548524 -1.182939,0.253195 -2.369457,0.493009 -3.544612,0.781256 -0.20874,0.0512 -0.428813,0.07287 -0.623729,0.163433 -0.09055,0.04207 -0.28652,0.166317 -0.202689,0.220554 1.261404,0.816092 2.624317,1.463398 3.936476,2.195097 1.678522,-0.09354 3.360362,-0.21736 5.042207,-0.233235 0.491905,-0.0046 0.985906,-0.01648 1.475438,0.03202 0.299085,0.02964 1.131282,0.36448 0.87889,0.201295 -1.036526,-0.670174 -2.177407,-1.16318 -3.266111,-1.744768 -1.388269,0.719357 -2.916891,1.05986 -4.394669,1.533951 1.268709,0.704858 2.428322,1.658392 3.806127,2.114571 0.484753,0.160499 0.990393,-0.249693 1.48863,-0.361527 0.663959,-0.149029 1.330365,-0.287163 1.997557,-0.42097 1.780434,-0.357069 3.570136,-0.667105 5.35863,-0.980406 0.337013,-0.04997 0.670528,-0.13871 1.011041,-0.14991 0.121079,-0.004 0.231913,0.07015 0.347869,0.105222 -1.171162,-0.678963 -2.278044,-1.483458 -3.513489,-2.036895 -0.169466,-0.07591 -0.33456,0.161348 -0.504063,0.237178 -0.10618,0.0475 -0.940919,0.400558 -1.079193,0.459134 -1.126731,1.273188 -0.738841,0.693097 3.630337,2.341806 0.366363,0.138247 0.766429,-0.161335 1.147731,-0.250463 0.595458,-0.139184 1.186677,-0.296137 1.782344,-0.434427 1.31073,-0.304297 2.626556,-0.586232 3.938662,-0.884528 0.533495,-0.112123 1.062664,-0.247272 1.600486,-0.336365 0.312369,-0.05175 0.629422,-0.08909 0.946028,-0.08548 0.08798,0.0011 0.321974,0.141094 0.244687,0.09904 -1.281047,-0.697073 -2.47,-1.615193 -3.857371,-2.064856 -0.425543,-0.137922 -0.851837,0.273873 -1.281203,0.399392 -0.537808,0.15722 -1.079965,0.299143 -1.619948,0.448714 -0.990497,0.273971 -1.994435,0.494581 -2.989509,0.750301 -1.937866,0.498004 -2.081966,0.528005 2.651287,2.550334 0.434525,0.185656 0.929211,-0.172363 1.394518,-0.254653 0.710681,-0.125691 1.422273,-0.24619 2.133409,-0.369282 2.109333,-0.349448 4.213741,-0.774279 6.342981,-0.993307 0.415401,-0.04273 1.556536,0.206796 1.250399,-0.07722 -2.167562,-2.010957 -2.060905,-1.976286 -3.31892,-1.49684 -0.806966,0.584856 -1.716653,0.996638 -2.587474,1.472081 -0.211857,0.115668 -0.455176,0.191643 -0.628531,0.359603 -0.09374,0.09083 -0.239355,0.307163 -0.125468,0.370932 1.329881,0.744641 2.775696,1.260076 4.163544,1.890112 3.885642,-1.081317 7.795207,-2.069144 11.709778,-3.039514 0.244251,-0.02934 0.929693,0.0594 0.732753,-0.08802 -1.05239,-0.787797 -2.199674,-1.489046 -3.436085,-1.935628 -0.274693,-0.09922 -0.509114,0.28698 -0.771126,0.416012 -1.14768,0.565185 -2.339858,1.027962 -3.526702,1.502079 -0.193501,0.121087 -0.745215,0.20523 -0.580501,0.36326 1.023741,0.982186 2.208072,1.830594 3.493317,2.431328 0.401707,0.187761 0.878356,-0.122389 1.317668,-0.182634 2.000959,-0.2744 3.99734,-0.571558 5.994124,-0.874869 -2.369775,-1.532935 3.104449,0.262893 2.417699,-0.162279 -1.156872,-0.716227 -2.315493,-1.52128 -3.633075,-1.860844 -0.465715,-0.120023 -0.872207,0.40676 -1.319052,0.584594 -1.500756,0.597276 -2.421985,0.868868 -3.963783,1.370277 -0.610436,0.184619 -1.220081,0.371875 -1.831311,0.553855 -0.493982,0.147072 -0.989222,0.289886 -1.484284,0.43329 -0.327339,0.09482 -0.660516,0.170902 -0.982911,0.281382 -0.08462,0.029 -0.314859,0.101343 -0.231955,0.134929 5.420106,2.195835 3.512312,2.063507 7.726209,1.357635 2.697303,-0.413837 5.391761,-0.845931 8.085572,-1.28185 0.613693,-0.09931 1.227598,-0.197337 1.840836,-0.299416 1.451747,-0.241657 0.838689,-0.235887 1.676238,-0.207576 -1.22814,-0.732555 -2.314038,-1.788988 -3.684418,-2.197661 -0.726223,-0.216572 -1.484418,0.307948 -2.2318,0.433332 -1.065041,0.178676 -2.134576,0.329988 -3.204221,0.478642 -2.757799,0.383272 -5.520936,0.714237 -8.293586,0.965303 -0.403609,0.01863 -1.515375,-0.209619 -1.210824,0.05589 1.100648,0.959567 2.73481,2.012585 4.318617,1.755963 0.836755,-0.135578 1.649013,-0.394192 2.477632,-0.572876 2.532253,-0.546057 3.6513,-0.731485 6.192285,-1.198086 2.536655,-0.440126 2.429875,-0.440719 4.775438,-0.783399 0.513834,-0.07507 1.025474,-0.173331 1.543259,-0.21286 0.234516,-0.01791 0.900094,0.171714 0.704384,0.04127 -3.529608,-2.352569 -2.467705,-2.423771 -4.768191,-1.54482 -1.347293,0.540457 -2.800477,0.789985 -4.136006,1.362197 -0.114941,0.04925 -0.416264,0.147558 -0.309282,0.212302 4.052487,2.452415 2.818579,2.309717 5.832398,1.806961 2.073571,-0.347509 4.140456,-0.733832 6.20437,-1.134332 0.505976,-0.09818 1.005332,-0.23694 1.516894,-0.299845 0.267978,-0.03295 1.030157,0.169852 0.809873,0.01373 -1.05746,-0.749435 -2.276453,-1.239864 -3.41468,-1.859793 -1.063448,0.705292 -2.197434,1.293373 -3.330218,1.876809 -0.01574,0.0081 -1.639012,0.790874 -1.817976,1.005684 -0.09959,0.119533 -0.03854,0.308771 -0.05781,0.463158 1.440133,0.648671 2.803438,1.506027 4.3204,1.946016 0.495064,0.143589 1.01778,-0.164243 1.526019,-0.250291 0.550259,-0.09316 1.100095,-0.188881 1.649436,-0.287329 0.451382,-0.08089 2.094124,-0.412232 2.653879,-0.435933 0.182819,-0.0078 0.361175,0.05903 0.541764,0.08854 -1.103876,-0.602795 -2.176823,-1.266058 -3.311631,-1.808382 -0.06503,-0.03108 -0.09871,0.105405 -0.15326,0.152514 -0.06461,0.05581 -1.022191,0.695602 -0.723326,0.868545 1.259938,0.72908 2.626516,1.255953 3.939773,1.883928 1.812041,-0.540215 3.579058,-1.222322 5.387419,-1.77274 -1.150236,-0.767286 -2.204632,-1.702633 -3.450709,-2.301854 -0.308448,-0.14833 -0.675185,0.114517 -1.015127,0.154292 -0.536911,0.06282 -1.076092,0.104463 -1.614447,0.153384 -2.578071,0.234281 -5.154203,0.393322 -7.739362,0.526114 -4.98825,0.207179 -9.9812,0.330785 -14.973646,0.258355 -3.958857,-0.03614 -7.913095,-0.176583 -11.866991,-0.367562 -2.89424,-0.159004 -5.786729,-0.360495 -8.684265,-0.45022 -2.526292,-0.01405 -5.049269,-0.04395 -7.573778,-0.149352 -1.158472,-0.102386 -2.350195,-0.02127 -3.496265,-0.260319 -0.134397,-0.02803 -0.510897,-0.194169 -0.392607,-0.124481 1.044027,0.615069 2.118527,1.17688 3.177791,1.765321 -0.02735,0.0053 -0.100602,-0.0049 -0.08206,0.01585 0.02244,0.02519 0.06869,0.01495 0.101058,0.0055 0.178149,-0.05225 0.34716,-0.132244 0.523994,-0.188794 0.32544,-0.104071 0.649962,-0.213518 0.982292,-0.292891 1.2002,-0.286652 1.962896,-0.363693 3.206377,-0.541681 3.635531,-0.496779 7.302444,-0.691719 10.967585,-0.789451 2.162508,0.0078 4.315857,-0.213151 6.473936,-0.311528 1.92691,-0.08784 2.465186,-0.07727 4.391083,-0.09865 3.37838,-0.05508 6.733924,0.305273 10.080024,0.71542 2.959825,0.354867 5.839066,1.141963 8.754179,1.737966 2.317829,0.438354 4.64204,0.840639 6.98985,1.073158 0.913492,0.05723 1.842854,0.224197 2.760062,0.09995 0.299415,-0.04056 0.715846,-0.171458 1.010147,-0.256638 0.512432,-0.162864 1.33827,-0.357632 1.215856,-1.078513 -0.0284,-0.167217 -0.126741,-0.314653 -0.190111,-0.47198 -0.148654,-0.195281 -0.280827,-0.404286 -0.445966,-0.58584 -0.313817,-0.345014 -1.090838,-1.039082 -1.476658,-1.27557 -3.244729,-1.988833 -3.876749,-2.447705 -6.896074,-3.391535 -1.625137,-0.437602 -3.281008,-0.870175 -4.976225,-0.880324 -0.801997,-0.0048 -1.108596,0.06284 -1.8968,0.166934 -1.962965,0.377687 -3.915005,0.807918 -5.87755,1.188063 -0.702733,0.126617 -0.37429,0.0704 -0.984964,0.170807 0,0 3.19981,2.231147 3.19981,2.231147 v 0 c 0.57563,-0.133027 0.264835,-0.06084 0.93231,-0.216935 1.923213,-0.467643 3.85704,-0.89069 5.814798,-1.188413 0.764788,-0.08396 1.064196,-0.141509 1.837573,-0.126825 1.646344,0.03126 3.255516,0.438616 4.82913,0.888855 0.477282,0.162874 0.962359,0.304479 1.431846,0.488621 0.438189,0.171866 1.65645,0.871451 1.288235,0.578253 -0.665888,-0.530225 -1.438249,-0.915742 -2.196881,-1.301777 -0.293018,-0.149106 0.536536,0.380841 0.792517,0.587156 0.225595,0.181821 0.445257,0.371988 0.650849,0.576151 0.153384,0.152321 0.282472,0.327295 0.423709,0.49094 0.07313,0.106354 0.147595,0.211799 0.219382,0.319063 0.03192,0.0477 0.092,0.08834 0.09168,0.145733 -0.0011,0.185981 -0.866634,0.448482 -0.994042,0.486754 -1.179695,0.318256 -2.387743,0.226893 -3.593573,0.107045 -2.288191,-0.233828 -4.56605,-0.582181 -6.82756,-0.999395 -2.940727,-0.617598 -5.846582,-1.435785 -8.840986,-1.764218 -3.301754,-0.383273 -6.616393,-0.610801 -9.943684,-0.556501 -3.670496,0.05747 -7.336613,0.180952 -11.004804,0.319749 -3.651938,0.177218 -7.300275,0.427977 -10.932332,0.857975 -1.061447,0.136983 -2.311141,0.279678 -3.369789,0.484643 -0.568925,0.110149 -1.756407,0.276 -2.099582,0.885018 -0.04552,0.08078 -0.01019,0.185171 -0.01529,0.277754 1.201319,0.673934 2.38271,1.384692 3.603958,2.021803 0.09614,0.05016 0.95527,0.105879 0.955411,0.105886 0.932632,0.06048 1.866751,0.05543 2.800529,0.08612 2.543263,0.07144 5.085723,0.165341 7.63011,0.187058 2.83795,0.06743 5.674868,0.166457 8.509024,0.332655 3.947633,0.214646 7.900897,0.279866 11.853555,0.338468 4.945034,-0.0013 9.88985,-0.176302 14.829904,-0.385736 2.657292,-0.120438 5.314307,-0.249115 7.9717,-0.367001 0.576641,-0.02559 1.153141,-0.05892 1.730269,-0.06863 0.374213,-0.0063 1.358754,0.310991 1.122608,0.02064 -0.771818,-0.949013 -1.944586,-1.484556 -2.916877,-2.226834 -1.716842,0.723185 -3.483338,1.387279 -5.324004,1.706705 0.93758,0.670177 1.910336,1.293688 2.81274,2.010529 0.05542,0.04402 -0.232579,0.126905 -0.202888,0.06265 0.05188,-0.112263 1.141408,-0.881582 1.018829,-0.989418 -1.010034,-0.888553 -2.240907,-1.489001 -3.361359,-2.233501 -1.569083,0.206933 -3.095993,0.641181 -4.67056,0.828894 -0.532448,0.06348 -1.777812,-0.378669 -1.603516,0.128432 0.322874,0.939369 1.532816,1.263772 2.299224,1.895655 -0.481973,-0.0585 -0.526407,0.0097 0.258535,-0.489702 1.509043,-0.960146 3.212317,-1.589259 4.75397,-2.491364 -1.027983,-0.783495 -1.969572,-1.69568 -3.083952,-2.350487 -0.202403,-0.11893 -0.462766,0.08042 -0.691821,0.131855 -0.481849,0.108194 -0.958835,0.237244 -1.44035,0.346906 -2.048573,0.46655 -4.11395,0.867622 -6.204013,1.098166 -0.623975,0.0459 -1.991384,-0.47644 -1.871927,0.137711 0.201898,1.037995 1.546423,1.442691 2.319634,2.164035 0.0154,-0.05807 -0.0056,-0.143862 0.04622,-0.174205 0.307689,-0.180051 0.645612,-0.304982 0.980686,-0.426706 0.690223,-0.250746 2.419765,-0.743469 3.103996,-0.943457 2.292392,-0.636135 2.271088,-0.228293 -1.410867,-2.773899 -0.156363,-0.108106 -0.372689,0.07516 -0.558956,0.113122 -4.361381,0.888916 2.196521,-0.444399 -3.429341,0.696201 -0.85966,0.174289 -1.719141,0.34948 -2.578709,0.524222 -2.718718,0.514384 -3.52312,0.684037 -6.285566,1.13425 -0.906901,0.147801 -1.830318,0.206208 -2.725242,0.414594 -0.592773,0.13803 -2.064854,0.120158 -1.717445,0.619898 1.667703,2.39895 2.730137,1.996336 4.503462,1.696029 3.785902,-0.620482 7.585472,-1.173432 11.409328,-1.505511 0.866251,-0.07523 2.636951,0.706871 2.603505,-0.161999 -0.04548,-1.181394 -1.798902,-1.534605 -2.698353,-2.301907 -0.627898,0.362429 -2.525736,0.660196 -3.123591,0.780391 -2.646172,0.531995 -5.305396,1.005232 -7.984913,1.337305 -0.956469,0.108104 -2.36537,-0.495731 -2.869404,0.324308 -0.456925,0.743394 0.839756,1.529863 1.25956,2.294834 0.01389,0.02535 -0.06762,-0.06283 -0.04186,-0.07593 0.27917,-0.142041 0.578885,-0.239979 0.873239,-0.347067 0.788958,-0.28703 2.468994,-0.832445 3.19559,-1.071806 1.361951,-0.441153 2.729304,-0.86552 4.090945,-1.307634 0.523237,-0.169892 1.762702,-0.01389 1.564018,-0.526899 -1.257279,-3.246305 -2.812917,-2.492306 -4.933876,-2.090751 -2.005256,0.328663 -4.049376,0.724149 -6.088671,0.750438 -0.46288,0.006 -1.655656,-0.483174 -1.384554,-0.107945 2.106907,2.916132 2.058382,2.719787 3.232457,1.71785 1.185384,-0.516017 2.386005,-0.991238 3.576445,-1.494703 0.331665,-0.140269 1.205658,-0.151765 0.987446,-0.438227 -2.136008,-2.804088 -2.046248,-2.649614 -3.683543,-2.10399 -3.860805,1.194522 -7.774138,2.317469 -11.778204,2.903908 0.833736,0.673613 1.701159,1.307544 2.501212,2.020837 0.05613,0.05005 -0.276956,0.06293 -0.225468,0.0081 0.155694,-0.165759 0.37533,-0.257347 0.569998,-0.374915 0.883107,-0.533352 1.824484,-0.960739 2.703382,-1.501611 1.454513,-1.606759 1.346722,-1.032846 -2.983952,-2.689677 -0.365101,-0.139682 -0.775377,0.10124 -1.161105,0.164669 -1.277877,0.210137 -2.54806,0.465333 -3.825809,0.676251 -0.805416,0.132948 -1.612874,0.25323 -2.41931,0.379843 -0.755582,0.08374 -1.508178,0.20128 -2.266744,0.251222 -0.513945,0.03383 -1.804924,-0.445016 -1.545175,-2.54e-4 0.600033,1.027414 1.776958,1.616671 2.8217,2.186004 0.213024,0.116086 0.440044,-0.207317 0.670573,-0.28289 0.54474,-0.178581 2.458923,-0.667398 2.929517,-0.790131 0.560435,-0.136059 1.119566,-0.277608 1.681305,-0.408172 0.471165,-0.109514 1.591313,0.139297 1.417233,-0.312018 -1.214425,-3.14851 -1.821918,-2.584522 -3.466989,-2.175767 -0.511625,0.127127 -1.022911,0.255606 -1.534366,0.383411 -1.935049,0.460684 -3.877001,0.917268 -5.848964,1.195927 -0.41316,0.05838 -1.475298,-0.231876 -1.246317,0.116946 2.793682,4.25578 2.754005,3.257367 2.728904,2.072007 0.760839,-0.348252 0.219962,-0.106249 1.069123,-0.469418 0.196686,-0.08412 0.731055,-0.09423 0.589198,-0.254349 -2.467679,-2.785367 -2.038048,-2.628048 -4.139353,-2.123504 -2.430021,0.528608 -4.866963,1.044382 -7.327035,1.415725 -0.555577,0.08386 -1.866127,-0.314193 -1.672084,0.213108 0.397425,1.079987 1.726911,1.521532 2.590368,2.282296 0.95427,-0.487931 2.045872,-0.707932 3.05054,-1.07396 0.323472,-0.11785 0.657918,-0.214669 0.961623,-0.376798 0.235791,-0.125873 0.428416,-0.319733 0.642625,-0.4796 -1.092724,-0.771514 -2.1234,-1.639427 -3.278174,-2.314543 -0.23114,-0.135133 -0.5325,-0.0646 -0.800193,-0.0698 -0.472694,-0.0092 -0.945522,0.01267 -1.4181,0.02668 -1.741424,0.05164 -3.485489,0.168666 -5.227301,0.04231 0.858644,0.693137 1.716325,1.387465 2.57593,2.079408 0.01492,0.01201 -0.05928,-0.03172 -0.04177,-0.03952 0.179993,-0.08017 0.371247,-0.132546 0.559408,-0.191045 1.115195,-0.346718 2.255343,-0.606507 3.395729,-0.854234 1.272765,-0.23118 1.812843,-0.363897 3.094741,-0.4626 0.406781,-0.03132 1.446064,0.307411 1.223468,-0.0345 -0.608206,-0.934212 -1.738964,-1.39523 -2.608445,-2.092846 -0.02998,0.07209 -0.02635,0.170942 -0.08993,0.216281 -0.255619,0.182329 -0.554752,0.294272 -0.832125,0.441407 -1.401765,0.663453 -2.814005,1.299731 -4.233111,1.925341 -0.489236,0.215678 -0.992087,0.402338 -1.469165,0.64372 -0.318707,0.161253 -1.131621,0.279186 -0.912696,0.561409 0.81517,1.050854 2.132293,1.59013 3.198439,2.385195 1.574382,0.170016 3.179953,-0.05155 4.740256,0.274741 -1.049948,-0.706655 -2.099894,-1.413306 -3.14984,-2.119961 0.01873,-0.01643 0.07638,-0.03476 0.05616,-0.04931 -0.02262,-0.0163 -0.04931,0.02681 -0.07594,0.03508 -1.206789,0.374623 -5.000681,-3.659389 2.833997,2.271305 0.240453,-0.213509 0.801822,-0.370713 1.069067,-0.475721 1.058344,-0.415859 2.125594,-0.808043 3.184202,-1.223267 0.153525,-0.06194 2.267824,-0.901279 2.468333,-1.032851 0.240861,-0.158046 0.797658,-0.448263 0.581824,-0.639072 -2.353207,-2.080355 -2.973779,-2.104996 -5.213514,-2.022091 -0.32012,-0.01035 -0.641115,-0.0052 -0.960358,-0.031 -0.257371,-0.02082 -0.95445,-0.286216 -0.766972,-0.108664 0.84441,0.799705 1.873843,1.378159 2.820609,2.053576 0.01974,0.01408 -0.05308,-0.05143 -0.03289,-0.06483 0.151043,-0.100328 0.32475,-0.161507 0.489074,-0.238175 0.236855,-0.110506 0.476232,-0.215527 0.714346,-0.323292 1.0633,-0.479063 2.134973,-0.940152 3.184419,-1.449401 0.348822,-0.169267 0.720596,-0.301643 1.039059,-0.522801 0.261083,-0.181308 0.911981,-0.454236 0.678558,-0.669991 -1.010134,-0.933659 -2.396757,-1.350523 -3.595137,-2.025785 -0.901779,0.05962 -1.803691,0.214093 -2.708891,0.208712 -0.310814,-0.0019 -1.142516,-0.295175 -0.92995,-0.0684 2.597168,2.770791 2.367047,3.105844 2.910017,1.864112 1.172043,-0.798481 2.432746,-1.454415 3.692983,-2.102313 0.356901,-0.183486 1.266917,-0.186717 1.076134,-0.539771 -0.591928,-1.095405 -1.826524,-1.692622 -2.739789,-2.538934 -2.132724,0.564507 -4.24361,1.229746 -6.437675,1.535599 -0.556631,0.07083 -1.110242,0.171889 -1.669891,0.212492 -0.370637,0.02689 -1.347531,-0.300159 -1.114783,-0.01048 0.737116,0.917474 1.790827,1.552096 2.816728,2.128835 0.150204,0.08444 0.262001,-0.226595 0.410009,-0.314828 0.165616,-0.09873 1.797489,-0.91232 1.885466,-0.956421 0.357849,-0.17517 1.761974,-0.844936 2.11786,-1.085636 0.237593,-0.160695 0.838012,-0.364574 0.641506,-0.573521 -2.10076,-2.233766 -2.818741,-2.423896 -5.098039,-2.362846 -2.833598,0.144926 -5.670101,0.297754 -8.505582,0.08384 -0.543809,-0.04102 -1.869879,-0.6756 -1.625195,-0.188219 0.481079,0.958257 1.685861,1.32539 2.528792,1.988084 -0.215185,-0.214431 -0.10205,-0.06472 0.554323,-0.310274 0.318307,-0.119084 0.640289,-0.228126 0.961345,-0.339595 1.2597,-0.437365 1.528895,-0.523484 2.874616,-0.959263 0.596757,-0.193244 1.19438,-0.383813 1.791571,-0.575718 0.267393,-0.08199 2.898042,-0.886555 3.304201,-1.018119 0.325514,-0.105439 1.162725,-0.05232 0.970224,-0.335201 -1.850162,-2.71881 -1.860909,-2.525257 -3.557222,-2.413873 -3.235933,0.299189 -6.470978,0.608733 -9.697169,1.001898 -2.687897,0.278731 -5.403178,0.642009 -8.109695,0.66752 -0.584492,0.0055 -2.032984,-0.604594 -1.751109,-0.09253 1.703983,3.095508 2.014669,2.756995 3.18309,1.977083 2.34277,-1.070255 4.798373,-1.864521 7.257532,-2.619333 0.354486,-0.125637 0.710946,-0.24584 1.063458,-0.376917 0.282824,-0.105164 1.015254,-0.08447 0.842264,-0.331698 -1.829001,-2.613948 -2.11664,-2.582248 -4.153072,-2.462691 -2.822998,0.149646 -5.641824,0.356764 -8.454439,0.645448 -1.570706,0.132763 -3.375416,0.292622 -4.941762,0.393772 -2.893431,0.186851 -5.797357,0.186216 -8.6818269,0.505425 -0.4540382,0.03966 -0.9087358,0.07239 -1.3621149,0.118981 -0.2510705,0.0258 -0.927368,-0.08217 -0.7507888,0.09817 2.7714233,2.83043 2.4034996,2.373698 4.9425226,2.02575 4.674195,-0.611769 9.368111,-1.04843 14.060066,-1.498679 2.699752,-0.203756 3.849962,-0.316296 6.505852,-0.421061 0.686213,-0.02707 2.302216,0.602869 2.059863,-0.0397 -1.15806,-3.070429 -2.338152,-2.418218 -3.965847,-2.021695 -4.442581,0.921917 -8.920559,1.680467 -13.417484,2.282516 -0.76878,0.100758 -1.537388,0.202843 -2.306341,0.302276 -0.459882,0.05946 -1.59238,-0.237874 -1.380154,0.174421 1.791455,3.48031 1.739584,2.500561 3.280925,2.266196 1.42287,-0.205939 2.853408,-0.327464 4.292059,-0.343757 3.144923,-0.06151 6.285401,0.120565 9.425273,0.285413 0.708109,0.04565 3.305963,0.201481 4.09485,0.294469 0.408919,0.0482 1.486117,0.52588 1.21644,0.214733 -5.082897,-5.864585 -1.867532,-2.652657 -3.030016,-1.883032 -0.188344,0.124693 -0.399029,0.211802 -0.598543,0.317704 -0.950431,0.485672 -1.903029,0.95744 -2.884506,1.378558 -0.354108,0.151937 -0.709186,0.302165 -1.069652,0.43833 -0.239342,0.09041 -0.900234,0.05115 -0.728734,0.241009 0.831792,0.920837 1.98116,1.494745 2.971739,2.242119 0.624988,-0.709549 1.762151,-1.252111 2.528655,-1.851856 0.197236,-0.154329 0.723172,-0.312452 0.55921,-0.501756 -0.867196,-1.001228 -2.081668,-1.638472 -3.122502,-2.457709 -0.845563,0.123214 -1.667121,0.476195 -2.474359,0.738783 -1.937273,0.630179 -3.886294,1.223753 -5.829037,1.836629 -1.191553,0.345779 -2.812801,0.855236 -4.066222,1.084704 -0.351071,0.06427 -1.294923,-0.180694 -1.066616,0.09364 3.41404,4.10228 2.031199,2.751387 3.31024,1.788311 0.291204,-0.219265 0.610049,-0.399185 0.915073,-0.598778 1.153134,-0.745117 2.339396,-1.448261 3.480288,-2.211113 0.276274,-0.184729 1.015963,-0.33062 0.80538,-0.587735 -2.18818,-2.671672 -2.014102,-2.621938 -3.541097,-2.254056 -2.677397,0.774133 -5.382155,1.446146 -8.142099,1.86183 -1.801685,0.246131 -2.245743,0.350869 -4.0042301,0.431596 -0.4445323,0.0204 -1.6065053,-0.345723 -1.3349838,0.0069 0.6747661,0.876165 1.908479,1.135629 2.7590959,1.842331 0.09465,0.07864 -0.197121,0.191153 -0.319975,0.184118 -0.09658,-0.0055 0.14632,-0.126582 0.219479,-0.189873 1.967635,-1.352783 4.093744,-2.4663 6.172899,-3.632721 0.515851,-0.27164 1.02797,-0.550489 1.547553,-0.814917 0.422035,-0.214786 0.881661,-0.361825 1.276965,-0.622556 0.221625,-0.146175 0.749107,-0.408821 0.546034,-0.579837 -2.491531,-2.098233 -2.677431,-2.195812 -4.669721,-1.726592 -2.94554,0.721628 -5.8937818,1.443287 -8.8791826,1.984174 -3.0605034,0.480817 -6.17294461,0.791049 -9.1605895,1.63521 z" />
   </g>
</svg>
